# xmcd
#
# Track frame offsets:
#	150
#	10135
#	23700
#	35752
#	48872
#	59352
#	72157
#	83707
#	97615
#	110547
#	120265
#	130450
#	141582
#	152787
#	162685
#	175267
#	190432
#	203372
#	215307
#	224312
#	232125
#	243945
#	254242
#	263995
#	275577
#	288222
#	301412
#	312280
#	323572
#
# Disc length: 4464 seconds
#
# Revision: 0
# Processed by: cddbd v1.4PL0 Copyright (c) Steve Scherf et al.
# Submitted via: audiograbber 1.81.02
#
DISCID=a9116e1d
DTITLE=Carl Perkins - The Defenitive Collection-Disc 1
DYEAR=1998
DGENRE=Country
TTITLE0=Movie Magg-1955
TTITLE1=Turn Around
TTITLE2=Gone, Gone, Gone
TTITLE3=Leet The Jukebox Keep playing
TTITLE4=Blue Suede Blues
TTITLE5=Honey Don't
TTITLE6=Sure To Fall-1956
TTITLE7=Tennessee
TTITLE8=Boppin' The Blues
TTITLE9=All Mama's Children
TTITLE10=Everbody's Tryin' To Be My Baby
TTITLE11=Dixie Fried
TTITLE12=I'm Sorrry, I'm Not Sorry
TTITLE13=Matchbox
TTITLE14=Your True Love-1957
TTITLE15=Only You
TTITLE16=That's Right
TTITLE17=Forever Yours
TTITLE18=Lend me Your Comb
TTITLE19=Glad All Over
TTITLE20=Right String Baby, Wrong Yo-Yo
TTITLE21=Blue Suede Shoes #3- 1982
TTITLE22=Honey Don't #1-1990
TTITLE23=Boppin' the Blues-1982
TTITLE24=That's Right-1990
TTITLE25=Gone, Gone, Gone-1982
TTITLE26=Dixie Fried-1998
TTITLE27=All Mama's Children-1989
TTITLE28=Sure To Fall-1998
EXTD=
EXTT0=
EXTT1=
EXTT2=
EXTT3=
EXTT4=
EXTT5=
EXTT6=
EXTT7=
EXTT8=
EXTT9=
EXTT10=
EXTT11=
EXTT12=
EXTT13=
EXTT14=
EXTT15=
EXTT16=
EXTT17=
EXTT18=
EXTT19=
EXTT20=
EXTT21=
EXTT22=
EXTT23=
EXTT24=
EXTT25=
EXTT26=
EXTT27=
EXTT28=
PLAYORDER=
